<?xml version="1.0" encoding="UTF-8"?>
<svg id="Layer_1" xmlns="http://www.w3.org/2000/svg" version="1.1" viewBox="0 0 90.71 90.71">
  <!-- Generator: Adobe Illustrator 30.2.1, SVG Export Plug-In . SVG Version: 2.1.1 Build 1)  -->
  <path d="M74.21,44.35l-10.36,1.49v-.62l4-2c.51-.21.75-.8.54-1.31-.21-.51-.8-.75-1.31-.54-.05.02-.09.04-.13.07l-3,1.52v-4.11c-.04-1.16-.25-2.3-.6-3.4l2.42-1.21c.51-.21.75-.8.54-1.31-.21-.51-.8-.75-1.31-.54-.05.02-.09.04-.13.07l-2.16,1.09c-.68-1.5-1.63-2.85-2.81-4l5.27-7.62c.34-.44.26-1.06-.18-1.4s-1.06-.26-1.4.18c-.02.03-.04.06-.06.09l-5.18,7.46c-1.88-1.34-4.09-2.15-6.39-2.34l.39-3.45c.06-.55-.34-1.05-.89-1.11-.55-.06-1.05.34-1.11.89l-.4,3.61h-4.6v-7.5c0-.55-.45-1-1-1s-1,.45-1,1v7.5h-4.27l-2.92-4.08c-.28-.48-.89-.63-1.37-.35-.48.28-.63.89-.35,1.37.03.05.06.1.1.14l2.12,3c-2.44.22-4.76,1.14-6.7,2.63l-3.4-3.4c-.39-.39-1.03-.39-1.42,0s-.39,1.03,0,1.42l3.32,3.32c-1.95,2.04-3.19,4.65-3.52,7.45h-8.59c-.55,0-1,.45-1,1s.45,1,1,1h8.5v3h-3.5c-.55,0-1,.45-1,1s.45,1,1,1h3.5v5.91l-4.91,2.18c-.5.23-.72.82-.5,1.32.16.36.52.58.91.59.14,0,.28-.03.41-.09l4.12-1.83c.08,1.85.55,3.66,1.39,5.31l-6.42,3.75c-.47.28-.63.9-.35,1.37.18.3.5.49.85.49.18,0,.35-.05.5-.14l6.5-3.77c1.38,1.92,3.25,3.42,5.42,4.36l-.42,3.44c-.06.55.33,1.04.88,1.1h.12c.51,0,.94-.38,1-.89l.34-3c1.04.27,2.1.41,3.17.41h1.49v7.49c0,.55.45,1,1,1s1-.45,1-1v-7.5h2.68l1.32,6.7c.1.47.52.81,1,.8h.2c.54-.1.91-.62.81-1.16,0-.01,0-.03,0-.04l-1.26-6.3h5.76l3.8,4.22c.19.18.44.28.7.28.25,0,.49-.09.67-.26.41-.37.44-1,.07-1.41l-2.94-3.27c.81-.22,1.6-.51,2.35-.87l2,3.32c.18.3.5.49.85.49.18,0,.36-.05.51-.14.47-.28.63-.9.35-1.37l-2-3.3c.8-.56,1.54-1.21,2.2-1.93l1.15,1.38c.19.23.49.37.79.36.23,0,.46-.08.64-.23.43-.35.48-.98.13-1.41h0s-1.42-1.71-1.42-1.71c.52-.79.94-1.63,1.28-2.51l2.86,1.72c.15.09.33.14.51.14.55,0,1-.45,1-1,0-.35-.19-.68-.49-.86l-3.29-2c.18-.88.28-1.77.28-2.67v-4l10.64-1.47c.55-.08.94-.59.86-1.14s-.59-.94-1.14-.86ZM61.85,51.85c0,.53-.05,1.06-.13,1.59-.53-.17-1.09.12-1.26.65-.13.42.02.87.38,1.12l.39.24c-.23.66-.52,1.3-.88,1.9l-2.22-2.67c-.35-.43-.98-.48-1.41-.13s-.48.98-.13,1.41l2.56,3.07c-.58.66-1.23,1.25-1.95,1.76-.29-.46-.88-.6-1.35-.33-.46.28-.61.86-.36,1.33-.91.42-1.88.72-2.87.88l-4.52-5c-.35-.43-.98-.5-1.41-.15-.43.35-.5.98-.15,1.41.02.03.05.06.08.09l3.43,3.84h-4.38l-.32-1.7c-.11-.55-.65-.91-1.2-.8-.55.11-.91.65-.8,1.2l.26,1.3h-2.26v-1.5c0-.55-.45-1-1-1s-1,.45-1,1v1.5h-1.5c-1.01,0-2.02-.14-3-.41l.44-4c.06-.55-.34-1.05-.89-1.11s-1.05.34-1.11.89h0l-.39,3.46c-1.54-.77-2.88-1.89-3.91-3.27l3.79-2.22c.5-.23.73-.82.5-1.32-.23-.5-.82-.73-1.32-.5-.06.03-.12.06-.18.1l-3.85,2.24c-.73-1.52-1.1-3.18-1.08-4.86v-.29l2.91-1.3c.49-.26.68-.86.42-1.35-.24-.45-.77-.65-1.24-.47l-2.09.91v-5h6.5c.55,0,1-.45,1-1s-.45-1-1-1h-6.5v-3h4.5c.55,0,1-.45,1-1s-.45-1-1-1h-4.39c.32-2.28,1.34-4.39,2.92-6.06l4.76,4.77c.39.39,1.02.39,1.41,0,0,0,0,0,0,0,.39-.39.39-1.02,0-1.41,0,0,0,0,0,0l-4.71-4.67c1.88-1.38,4.16-2.13,6.5-2.12h.2l1.49,2.08c.19.26.49.42.81.42.21,0,.41-.07.58-.19.45-.32.55-.94.23-1.39l-.65-.92h2.84v3.5c0,.55.45,1,1,1s1-.45,1-1v-3.5h4.38l-.38,3.39c-.06.55.33,1.04.88,1.1h.12c.51,0,.94-.38,1-.89l.4-3.56c1.97.16,3.87.85,5.48,2l-2.69,3.88c-.32.45-.22,1.07.23,1.39.17.12.37.18.58.19.33,0,.63-.16.82-.43l2.57-3.71c.92.94,1.65,2.04,2.18,3.24l-2,1c-.49.25-.69.85-.44,1.34.16.33.5.55.87.56.16,0,.31-.04.45-.11l1.76-.89c.19.82.29,1.65.29,2.49v5.13l-1,.48c-.49.25-.69.85-.44,1.34.1.2.28.36.49.45l-.74.11c-.55.05-.96.54-.9,1.1.05.55.54.96,1.1.9h.14l1.36-.19v3.69Z"/>
  <path d="M36.15,48.35c-.54.1-.91.62-.81,1.16,0,.01,0,.03,0,.04l1,5c.1.47.52.81,1,.8h.2c.54-.1.91-.62.81-1.16,0-.01,0-.03,0-.04l-1-5c-.1-.54-.62-.91-1.16-.81-.01,0-.03,0-.04,0Z"/>
  <path d="M41.19,42.35c-.55.08-.92.59-.84,1.13,0,0,0,.02,0,.03l1,6c.08.49.5.85,1,.84h.16c.55-.08.92-.59.84-1.13,0,0,0-.02,0-.03l-1-6c-.08-.55-.59-.92-1.13-.84,0,0-.02,0-.03,0Z"/>
  <path d="M53.18,46.8c-.31-.46-.92-.58-1.38-.28l-6,4c-.46.31-.58.93-.27,1.39.18.27.49.44.82.44.2,0,.39-.06.55-.17l6-4c.46-.31.58-.92.28-1.38Z"/>
  <path d="M49.35,43.35c.55,0,1-.45,1-1v-4c0-.55-.45-1-1-1s-1,.45-1,1v4c0,.55.45,1,1,1Z"/>
  <path d="M41.35,39.35c.16,0,.31-.04.45-.11.49-.25.69-.85.44-1.34l-1-2c-.28-.47-.9-.63-1.37-.34-.42.26-.6.78-.41,1.24l1,2c.17.34.51.55.89.55Z"/>
  <path d="M56.67,39.4c-.52-.18-1.09.1-1.27.63,0,0,0,0,0,0l-1,3c-.2.51.05,1.09.56,1.3.02,0,.04.02.07.02.11.01.21.01.32,0,.45.02.86-.25,1-.68l1-3c.17-.53-.12-1.09-.64-1.26-.01,0-.02,0-.04-.01Z"/>
  <path d="M52.64,52.64l-2,2c-.39.39-.39,1.02,0,1.41,0,0,0,0,0,0,.39.39,1.02.39,1.41,0,0,0,0,0,0,0l2-2c.39-.39.39-1.03,0-1.42s-1.03-.39-1.42,0Z"/>
</svg>