<?xml version="1.0" encoding="UTF-8"?>
<svg id="Layer_1" xmlns="http://www.w3.org/2000/svg" version="1.1" viewBox="0 0 100 125">
  <!-- Generator: Adobe Illustrator 30.2.1, SVG Export Plug-In . SVG Version: 2.1.1 Build 1)  -->
  <path d="M85.9,61.1c2.5,1,4.9,2.1,7.6,2.4,1.1.1,2.2.2,3.2.8.5.3.4.5.1.9-.5.6-1.1.7-1.8.9-1.3.3-2.6.4-3.9.8-1.7.5-3.2,1.4-4.9,1.8-.1.4.1.6.4.8,2.6,1.4,5,3.4,7.8,4.6,0,0,.1,0,.1.1.4.4,1.3.7,1.1,1.4-.2.6-1,.4-1.5.5-.8.2-1.5,0-2.3,0-2.3-.1-4.6.3-6.9.3-.7,0-1.2.3-1.6.8-1.9,2.2-4.1,4-6.5,5.5-.2.1-.4.3-.5.5-.3.6-.8.6-1.4.6-2.3,0-4.5-.1-6.8-.1-3.7-.1-7.5,0-11.2,0-2.8,0-5.6-.2-8.5-.1-2.5.1-5.1.1-7.6.2-1.5,0-3-.1-4.4-.1-2.3,0-4.6.2-6.9.1-2.6-.1-5.2.1-7.9-.1-1.7-.1-3.5.3-5.3.2-1.7-.1-3.4,0-5-.3h-.6c-1.5.6-2.6-.4-3.6-1.1-.9-.7-1.1-2.8-.4-4.1.5-.9,1.1-1.7,2.2-1.9.9-.1,1.5-.5,2.1-1.1.5-.5,1-.9,1.6-1.4-.8-.9-1.6-1.7-2-2.8-.3-.8-.4-1.4-.3-2.2.3-1.5.2-1.5-1.2-2.1-1.4-.6-2.5-1.5-4-1.9-.5-.1-.7-.7-.7-1.2,0-.6.5-.6.9-.7,2.7-.9,5.5-1.7,8.4-2,.4,0,.7-.2,1.1-.3.1-.5-.2-.6-.5-.8-1.4-1.4-3.1-2.2-4.8-3.1-1-.5-1.9-1.3-3-1.6-.3-.3-.5-.5-.6-.7-.6-.6-.5-1,.3-1.2.4-.1.8-.1,1.1,0,3.1.1,6.2,0,9.3-.1.2,0,.5-.1.7-.2-.3-.9-1-1.4-1.6-1.8-2.4-1.7-4.6-3.6-7.2-5-.3-.1-.5-.3-.7-.5-.4-.3-.6-.7-.4-1.2s.7-.4,1.1-.4c1.9.3,3.8.6,5.7.9,1.8.3,3.6.5,5.4.7,0-.5-.2-.9-.5-1.2-2.4-2.5-4.8-5-7.3-7.6-.3-.3-.6-.5-.9-.6-.3-.1-.7-.3-.5-.7.1-.4.3-.7.7-.8.6-.1,1.2-.1,1.8.2,2,.8,4.1,1.3,6,2.4.9.5,2,.6,3.1.9-.2-.9-.6-1.4-1-1.9-1.3-1.6-2.3-3.5-3.5-5.2-.3-.4-.6-.9-1.1-1-.4-.1-.9-.3-.8-.9.1-.6.2-1.3,1-1.4.7-.1,1.3-.2,1.9.3.5.5,1.2.7,1.9,1,2.3,1,4.5,2.1,6.7,3.2.3.2.6.4.9.4.3-.5,0-.9-.1-1.4-.6-2.6-.7-5.2-1.7-7.7-.2-.5-.3-1.1.3-1.4.5-.2,1-.2,1.3.2,1.2,1.5,2.9,2.5,4.3,3.7.7.6,1.4,1.3,2.3,2.1,0-1.8.1-3.5-.3-5.1-.3-1.3-.3-2.7-.9-3.9-.1-.3,0-.6,0-.8,0-.5-.1-1.2.4-1.2.6-.1,1.3,0,1.6.7,1.3,2.7,3.4,4.9,4.9,7.4.4.6.8,1.2,1.5,1.7.4-1.2.7-2.4.8-3.5.1-1.2,0-2.4,0-3.6,0-.4,0-.8-.2-1.1-.3-.4-.3-.9-.1-1.4.2-.4-.1-1.2.6-1.3.6,0,.8.7,1,1.1.7,1.2,1.4,2.5,2,3.8,1,2,2.1,4.1,3.5,6,1.3-2.9,2.5-5.7,2.9-8.7.1-.8.6-1.3.8-2,.1-.2.3-.3.6-.3.2,0,.3.2.3.4.3,1.9,1.3,3.7,1.5,5.7.1.4.2.9.3,1.3.4,1.2.8,2.3.9,3.6,0,.4.1.9.4,1.3.4.1.5-.3.6-.5.7-1.6,1.6-3.1,2.4-4.7.3-.6.5-1.4.7-2,.3-.9,1-1.6,1.9-2.1.5,1.7.6,3.4.8,5.1.1,1.6.3,3.2.5,4.8,0,.3.2.5.2.8.2.6.6.7.9.3,1.6-1.9,3.8-3.3,5-5.7.3-.7,1.2-.8,1.8-.4.1.1.2.2.1.4-1,2.9-1.2,6-1.7,9-.1.8,0,.8.8.7,1.2-.1,2.1-.9,2.9-1.5,1.1-.7,2.2-1.2,3.3-1.9.5-.3,1-.6,1.4-1,.2-.2.4-.5.7-.5.5,0,1.1-.4,1.4.2s.1,1-.4,1.5c-.9.9-1.4,2.1-1.9,3.2-.6,1.4-1.1,2.9-1.7,4.3-.1.3-.3.6-.1,1,1,0,1.8-.3,2.7-.6,2.1-.8,4.1-1.6,6.2-2.4.5-.2,1.2-.7,1.6-.1.4.6-.2,1.1-.6,1.6-1.2,1.7-2.5,3.3-3.7,4.9-.6.8-1.1,1.5-1.6,2.3-.4.6-.2.8.5.9,1.2.1,2.5-.1,3.7-.3,1.8-.3,3.6-.5,5.4-.4.3,0,.6,0,.8.1.3.1.5.5.2.7-.6.5-.9,1.2-1.6,1.6-2,1.2-3.6,3-5.4,4.4-.3.2-.6.5-.5.8s.5.4.8.4c2.4.3,4.8.9,7.3.7,1.1-.1,2.1.3,3.1.3.5,0,.6.4.2.7-.6.6-1.4.8-2.1,1.2-2.5,1.1-5.1,2.2-7.5,3.6.4.5,0,.7-.1,1.2ZM13.2,82.4c.6.1,1,.2,1.4.2,4.5,0,8.9.3,13.4.2h.9c.2,0,.5-.2.4-.5-.1-1.5.3-3,.1-4.5-.3-.2-.5.1-.8.2-3.1,1.6-6.8-.5-7.6-2.9-.4-1.3-.1-2.4.3-3.6.2-.5.5-1,.8-1.5.2-.3,0-.6-.3-.7s-.4.1-.4.4c0,.8-.5,1.3-.7,2-.6,1.8-2,2.8-3.9,3-.8.1-1.6.1-2.4-.2-.5-.1-.9-.2-1.3.2-.6.5-1.1,1.1-1.7,1.6,2.8,1.8,3.3,3.4,1.8,6.1ZM26.3,77.8c.7-.1,1.6-.2,2.3-.6.8-.4,1.4-1,1.6-1.9.5-1.7,0-3.2-.8-4.6s-2-1.9-3.5-1.9c-1.2,0-2.1.3-2.9,1.2-.6.7-1,1.3-1.2,2.2-.8,2.7,1.4,5.7,4.5,5.6ZM16.1,73.6c2,0,2.8-.5,3.8-2.2.1-.2.3-.5.4-.8.6-1.2.5-2.4,0-3.5-.4-1-1.3-1.6-2.2-2.1-2.9-1.5-5.7-.4-6.8,2.7-.3.9-.4,1.7-.1,2.6.8,2.2,2.5,3.4,4.9,3.3Z"/>
  <path d="M23.6,73.2c.1-1.7,1.5-2.9,3.2-2.7,1.1.1,2.4,1.7,2.3,2.9-.1,1.5-1.8,3.1-3.1,2.9-1.4-.1-2.5-1.6-2.4-3.1ZM24.4,73.1c0,.3-.1.7.3.8.4.1.6-.2.7-.5.1-.2.2-.4.3-.7.2-.3.1-.7-.2-.9-.4-.2-.7,0-.9.4-.2.3-.2.6-.2.9Z"/>
  <path d="M19.1,69c0,1.6-.6,2.5-1.8,3-1.3.5-3.3-.1-4.2-1.3-1.2-1.5-.6-3.7,1.2-4.5.4-.2.8-.3,1.2-.3,2.3-.2,3.6.9,3.6,3.1ZM14.6,67.4c-.2-.1-.5-.1-.7.1-.5.4-.7,1.6-.5,2.1.2.3.4.5.8.4.7-.2,1.3-1,1.3-1.7.1-.5-.1-1-.9-.9Z"/>
</svg>